<svg width="300" height="300" viewBox="0 0 300 300" fill="none" xmlns="http://www.w3.org/2000/svg">
<circle cx="150" cy="150" r="150" fill="#D9D9D9"/>
<g clip-path="url(#clip0_0_1)">
<path d="M204.01 57.9914L151.2 38.2534C150.294 37.9155 149.297 37.9155 148.392 38.2534L95.5817 57.9914C94.8251 58.2719 94.1724 58.777 93.711 59.439C93.2495 60.1009 93.0015 60.8881 93 61.695V107.749C93 125.062 102.599 142.584 120.76 158.422C134.193 170.137 147.45 176.8 148.008 177.079C148.564 177.354 149.176 177.498 149.796 177.497C150.416 177.497 151.028 177.354 151.583 177.078C152.141 176.8 165.398 170.136 178.831 158.421C196.992 142.584 206.591 125.062 206.591 107.749V61.695C206.59 60.8881 206.342 60.1009 205.88 59.439C205.419 58.777 204.766 58.2719 204.01 57.9914ZM198.62 107.749C198.62 140.329 158.797 164.097 149.796 169.051C140.794 164.097 100.971 140.329 100.971 107.749V64.4342L149.796 46.1858L198.62 64.4342V107.749Z" fill="#F10606"/>
</g>
<g clip-path="url(#clip1_0_1)">
<path fill-rule="evenodd" clip-rule="evenodd" d="M156.646 126.639L163.601 136.188L163.704 136.291L150.834 145.114V130.895L156.646 126.639ZM141.908 125.913L147.72 130.064V145.011L133.604 135.047L141.908 125.913ZM163.912 121.346L179.688 125.394L166.299 134.528C166.299 134.424 166.195 134.424 166.195 134.32L159.137 124.771L163.912 121.346ZM135.68 121.346L139.417 124.044L131.009 133.178L119.903 125.394L135.68 121.346ZM131.113 110.24V114.807C131.113 116.363 131.632 117.816 132.67 118.855L117.308 122.799C116.893 121.968 116.582 120.93 116.582 119.789V110.24L131.113 110.24ZM168.479 110.24L183.01 110.343V119.788C183.01 120.826 182.698 121.864 182.179 122.798L166.922 118.958C167.856 117.921 168.375 116.571 168.479 115.118V110.24ZM183.01 92.0757V107.229L168.479 107.126V97.2658L183.01 92.0757ZM116.582 92.0757L131.113 97.1617V107.022L116.582 107.229V92.0757ZM183.01 76.6106V88.8581L168.479 93.944V93.2172C168.479 90.7264 167.441 88.3392 165.884 86.6783L181.764 72.7699C182.491 73.8082 183.01 75.1575 183.01 76.6106ZM117.828 72.7703L133.708 86.6787C132.151 88.3392 131.113 90.519 131.113 92.9062V93.9445L116.582 88.8586V76.6106C116.582 75.1575 117.101 73.8082 117.828 72.7703ZM148.239 70.3831V83.8763H140.455C139.001 83.8763 137.548 84.1879 136.303 84.8105L120.422 70.902C121.149 70.5905 121.979 70.3831 122.81 70.3831H148.239ZM176.782 70.3831C177.613 70.3831 178.443 70.5905 179.17 70.902L163.289 84.8105C162.043 84.1879 160.694 83.8763 159.137 83.8763H151.353V70.3831H176.782Z" fill="#F10606"/>
<path fill-rule="evenodd" clip-rule="evenodd" d="M149.796 117.609L159.864 120.411L150.419 126.95C150.108 127.158 149.589 127.158 149.278 126.95L139.832 120.411L149.796 117.609ZM134.227 97.7847L138.275 99.1341C140.143 99.7567 141.389 101.521 141.389 103.493L141.493 113.457C141.493 114.599 142.323 115.637 143.465 115.948L144.087 116.156L136.511 118.128C135.057 116.986 134.227 115.222 134.227 113.354V97.7847ZM165.365 97.7847V113.458C165.365 115.326 164.534 117.091 163.081 118.232L155.504 116.052L156.127 115.845C157.269 115.533 158.099 114.496 158.099 113.354L158.203 103.39C158.203 101.418 159.449 99.653 161.317 99.0304L165.365 97.7847ZM159.137 86.9903C162.562 86.9903 165.365 89.7927 165.365 93.2177V94.4634L160.279 96.228C157.165 97.2658 155.089 100.172 155.089 103.494L154.986 112.108C154.986 112.524 154.674 112.939 154.259 113.146L149.796 114.391L145.333 113.146C144.917 113.042 144.606 112.731 144.606 112.315V112.212L144.502 103.493C144.502 100.275 142.427 97.369 139.313 96.2271L134.227 94.4625V93.2168C134.227 89.7918 137.029 86.9893 140.454 86.9893H159.137V86.9903Z" fill="#F10606"/>
</g>
<path d="M56.2 222H47.56V195.12H37.48V188.4H66.28V195.12H56.2V222ZM86.2056 204.24C86.2056 203.76 86.0456 203.36 85.7256 203.04C85.4056 202.72 85.0056 202.56 84.5256 202.56H83.3256C81.9816 202.56 80.8136 202.624 79.8216 202.752C78.8616 202.88 78.1096 202.976 77.5656 203.04V215.52H84.2856C85.5656 215.52 86.2056 214.88 86.2056 213.6V204.24ZM77.5656 197.04C80.6696 196.4 83.3896 196.08 85.7256 196.08H87.4056C89.5816 196.08 91.3256 196.736 92.6376 198.048C93.9496 199.36 94.6056 201.104 94.6056 203.28V214.32C94.6056 216.72 93.9176 218.608 92.5416 219.984C91.1976 221.328 89.3256 222 86.9256 222H69.1656V188.4H77.5656V197.04ZM109.491 197.52V222H101.091V204H97.4913V197.52H109.491ZM101.091 187.92H109.491V194.64H101.091V187.92ZM127.266 222C125.122 222.32 123.074 222.48 121.122 222.48C119.202 222.48 117.586 221.824 116.274 220.512C114.962 219.2 114.306 217.456 114.306 215.28V188.4H122.706V214.08C122.706 214.56 122.866 214.96 123.186 215.28C123.506 215.6 123.906 215.76 124.386 215.76H127.266V222ZM141.179 197.52V222H132.779V204H129.179V197.52H141.179ZM132.779 187.92H141.179V194.64H132.779V187.92ZM172.394 221.52C165.258 222.16 159.338 222.48 154.634 222.48C151.498 222.48 149.194 221.744 147.722 220.272C146.25 218.8 145.514 216.496 145.514 213.36V198C145.514 194.64 146.266 192.208 147.77 190.704C149.306 189.168 151.754 188.4 155.114 188.4H172.394V195.12H157.034C155.114 195.12 154.154 196.08 154.154 198V213.36C154.154 214.096 154.362 214.688 154.778 215.136C155.226 215.552 155.786 215.76 156.458 215.76C157.13 215.76 157.866 215.76 158.666 215.76C159.466 215.728 160.298 215.696 161.162 215.664C162.026 215.632 162.89 215.6 163.754 215.568C164.65 215.536 165.786 215.472 167.162 215.376C168.57 215.28 170.314 215.168 172.394 215.04V221.52ZM201.679 214.8C201.679 217.2 200.991 219.088 199.615 220.464C198.271 221.808 196.399 222.48 193.999 222.48H182.959C180.559 222.48 178.671 221.808 177.295 220.464C175.951 219.088 175.279 217.2 175.279 214.8V203.76C175.279 201.36 175.951 199.488 177.295 198.144C178.671 196.768 180.559 196.08 182.959 196.08H193.999C196.399 196.08 198.271 196.768 199.615 198.144C200.991 199.488 201.679 201.36 201.679 203.76V214.8ZM193.279 204.48C193.279 203.2 192.639 202.56 191.359 202.56H185.599C184.319 202.56 183.679 203.2 183.679 204.48V214.08C183.679 215.36 184.319 216 185.599 216H191.359C192.639 216 193.279 215.36 193.279 214.08V204.48ZM223.994 222L223.514 219.6C222.01 220.592 220.458 221.328 218.858 221.808C217.29 222.256 215.962 222.48 214.874 222.48H212.714C210.538 222.48 208.794 221.824 207.482 220.512C206.17 219.2 205.514 217.456 205.514 215.28V204.24C205.514 201.84 206.186 199.968 207.53 198.624C208.906 197.248 210.794 196.56 213.194 196.56H223.034V188.4H231.434V222H223.994ZM217.274 215.52C218.97 215.52 220.89 215.2 223.034 214.56V203.04H215.834C214.554 203.04 213.914 203.68 213.914 204.96V213.84C213.914 214.32 214.074 214.72 214.394 215.04C214.714 215.36 215.114 215.52 215.594 215.52H217.274ZM246.068 202.08C244.788 202.08 244.148 202.72 244.148 204V206.64H252.308V204C252.308 202.72 251.668 202.08 250.388 202.08H246.068ZM259.748 221.52C253.572 222.16 247.972 222.48 242.948 222.48C240.772 222.48 239.028 221.824 237.716 220.512C236.404 219.2 235.748 217.456 235.748 215.28V203.76C235.748 201.36 236.42 199.488 237.764 198.144C239.14 196.768 241.028 196.08 243.428 196.08H253.028C255.428 196.08 257.3 196.768 258.644 198.144C260.02 199.488 260.708 201.36 260.708 203.76V212.64H244.148V214.56C244.148 215.04 244.308 215.44 244.628 215.76C244.948 216.08 245.348 216.24 245.828 216.24C248.996 216.24 253.636 216 259.748 215.52V221.52Z" fill="#C00000"/>
<defs>
<clipPath id="clip0_0_1">
<rect width="113.591" height="139.497" fill="white" transform="translate(93 38)"/>
</clipPath>
<clipPath id="clip1_0_1">
<rect width="66.4281" height="74.7312" fill="white" transform="translate(116.582 70.3831)"/>
</clipPath>
</defs>
</svg>
