<svg width="575" height="140" viewBox="0 0 575 140" fill="none" xmlns="http://www.w3.org/2000/svg">
<path d="M165.4 101H148.12V47.24H127.96V33.8H185.56V47.24H165.4V101ZM225.411 65.48C225.411 64.52 225.091 63.72 224.451 63.08C223.811 62.44 223.011 62.12 222.051 62.12H219.651C216.963 62.12 214.627 62.248 212.643 62.504C210.723 62.76 209.219 62.952 208.131 63.08V88.04H221.571C224.131 88.04 225.411 86.76 225.411 84.2V65.48ZM208.131 51.08C214.339 49.8 219.779 49.16 224.451 49.16H227.811C232.163 49.16 235.651 50.472 238.275 53.096C240.899 55.72 242.211 59.208 242.211 63.56V85.64C242.211 90.44 240.835 94.216 238.083 96.968C235.395 99.656 231.651 101 226.851 101H191.331V33.8H208.131V51.08ZM271.983 52.04V101H255.183V65H247.983V52.04H271.983ZM255.183 32.84H271.983V46.28H255.183V32.84ZM307.533 101C303.245 101.64 299.149 101.96 295.245 101.96C291.405 101.96 288.173 100.648 285.549 98.024C282.925 95.4 281.613 91.912 281.613 87.56V33.8H298.413V85.16C298.413 86.12 298.733 86.92 299.373 87.56C300.013 88.2 300.813 88.52 301.773 88.52H307.533V101ZM335.358 52.04V101H318.558V65H311.358V52.04H335.358ZM318.558 32.84H335.358V46.28H318.558V32.84ZM397.788 100.04C383.516 101.32 371.676 101.96 362.268 101.96C355.996 101.96 351.388 100.488 348.444 97.544C345.5 94.6 344.028 89.992 344.028 83.72V53C344.028 46.28 345.532 41.416 348.54 38.408C351.612 35.336 356.508 33.8 363.228 33.8H397.788V47.24H367.068C363.228 47.24 361.308 49.16 361.308 53V83.72C361.308 85.192 361.724 86.376 362.556 87.272C363.452 88.104 364.572 88.52 365.916 88.52C367.26 88.52 368.732 88.52 370.332 88.52C371.932 88.456 373.596 88.392 375.324 88.328C377.052 88.264 378.78 88.2 380.508 88.136C382.3 88.072 384.572 87.944 387.324 87.752C390.14 87.56 393.628 87.336 397.788 87.08V100.04ZM456.359 86.6C456.359 91.4 454.983 95.176 452.231 97.928C449.543 100.616 445.799 101.96 440.999 101.96H418.919C414.119 101.96 410.343 100.616 407.591 97.928C404.903 95.176 403.559 91.4 403.559 86.6V64.52C403.559 59.72 404.903 55.976 407.591 53.288C410.343 50.536 414.119 49.16 418.919 49.16H440.999C445.799 49.16 449.543 50.536 452.231 53.288C454.983 55.976 456.359 59.72 456.359 64.52V86.6ZM439.559 65.96C439.559 63.4 438.279 62.12 435.719 62.12H424.199C421.639 62.12 420.359 63.4 420.359 65.96V85.16C420.359 87.72 421.639 89 424.199 89H435.719C438.279 89 439.559 87.72 439.559 85.16V65.96ZM500.988 101L500.028 96.2C497.02 98.184 493.916 99.656 490.716 100.616C487.58 101.512 484.924 101.96 482.748 101.96H478.428C474.076 101.96 470.588 100.648 467.964 98.024C465.34 95.4 464.028 91.912 464.028 87.56V65.48C464.028 60.68 465.372 56.936 468.06 54.248C470.812 51.496 474.588 50.12 479.388 50.12H499.068V33.8H515.868V101H500.988ZM487.548 88.04C490.94 88.04 494.78 87.4 499.068 86.12V63.08H484.668C482.108 63.08 480.828 64.36 480.828 66.92V84.68C480.828 85.64 481.148 86.44 481.788 87.08C482.428 87.72 483.228 88.04 484.188 88.04H487.548ZM545.136 61.16C542.576 61.16 541.296 62.44 541.296 65V70.28H557.616V65C557.616 62.44 556.336 61.16 553.776 61.16H545.136ZM572.496 100.04C560.144 101.32 548.944 101.96 538.896 101.96C534.544 101.96 531.056 100.648 528.432 98.024C525.808 95.4 524.496 91.912 524.496 87.56V64.52C524.496 59.72 525.84 55.976 528.528 53.288C531.28 50.536 535.056 49.16 539.856 49.16H559.056C563.856 49.16 567.6 50.536 570.288 53.288C573.04 55.976 574.416 59.72 574.416 64.52V82.28H541.296V86.12C541.296 87.08 541.616 87.88 542.256 88.52C542.896 89.16 543.696 89.48 544.656 89.48C550.992 89.48 560.272 89 572.496 88.04V100.04Z" fill="#C00000"/>
<g clip-path="url(#clip0_0_1)">
<path d="M111.01 19.9913L58.1997 0.253345C57.2942 -0.0844685 56.2972 -0.0844685 55.3918 0.253345L2.58171 19.9913C1.82514 20.2719 1.17239 20.777 0.710963 21.439C0.249531 22.1009 0.00146201 22.8881 0 23.695V69.7493C0 87.0621 9.59947 104.584 27.7601 120.422C41.1928 132.137 54.4501 138.8 55.0081 139.079C55.5638 139.354 56.1756 139.498 56.7958 139.497C57.416 139.497 58.0277 139.354 58.5833 139.078C59.1413 138.8 72.3976 132.136 85.8313 120.421C103.992 104.584 113.591 87.0621 113.591 69.7493V23.695C113.59 22.8881 113.342 22.1009 112.88 21.439C112.419 20.777 111.766 20.2719 111.01 19.9913ZM105.62 69.7493C105.62 102.329 65.7973 126.097 56.7957 131.051C47.7941 126.097 7.97133 102.329 7.97133 69.7493V26.4342L56.7957 8.18581L105.62 26.4342V69.7493Z" fill="#F10606"/>
</g>
<g clip-path="url(#clip1_0_1)">
<path fill-rule="evenodd" clip-rule="evenodd" d="M63.6464 88.6389L70.6006 98.1877L70.7043 98.2914L57.8337 107.114V92.8948L63.6464 88.6389ZM48.9076 87.9126L54.7198 92.0644V107.011L40.604 97.0466L48.9076 87.9126ZM70.9117 83.3456L86.6884 87.3937L73.2989 96.5277C73.2989 96.424 73.1952 96.424 73.1952 96.3203L66.1373 86.7706L70.9117 83.3456ZM42.6801 83.3456L46.4167 86.0443L38.0094 95.1783L26.9034 87.3937L42.6801 83.3456ZM38.1131 72.2396V76.8066C38.1131 78.3634 38.632 79.8164 39.6699 80.8547L24.3084 84.7986C23.8932 83.9682 23.5816 82.9304 23.5816 81.7889V72.2401L38.1131 72.2396ZM75.4787 72.2396L90.0097 72.3433V81.7884C90.0097 82.8262 89.6982 83.864 89.1793 84.7982L73.922 80.9584C74.8561 79.9206 75.375 78.5712 75.4787 77.1182V72.2396ZM90.0097 54.0757V69.2293L75.4787 69.1261V59.2658L90.0097 54.0757ZM23.5821 54.0757L38.1131 59.1616V69.022L23.5821 69.2293V54.0757ZM90.0097 38.6106V50.8581L75.4787 55.944V55.2172C75.4787 52.7264 74.4409 50.3392 72.8837 48.6783L88.7641 34.7699C89.4908 35.8081 90.0097 37.1575 90.0097 38.6106ZM24.8278 34.7703L40.7082 48.6787C39.1509 50.3392 38.1131 52.519 38.1131 54.9062V55.9445L23.5821 50.8585V38.6106C23.5821 37.1575 24.101 35.8081 24.8278 34.7703ZM55.2392 32.3831V45.8763H47.4545C46.0015 45.8763 44.5484 46.1878 43.3027 46.8104L27.4224 32.902C28.1491 32.5905 28.9791 32.3831 29.8095 32.3831H55.2392ZM83.7823 32.3831C84.6127 32.3831 85.4432 32.5905 86.1695 32.902L70.2891 46.8104C69.0434 46.1878 67.6941 45.8763 66.1373 45.8763H58.3527V32.3831H83.7823Z" fill="#F10606"/>
<path fill-rule="evenodd" clip-rule="evenodd" d="M56.7959 79.609L66.8641 82.4115L57.419 88.9504C57.1075 89.1578 56.5886 89.1578 56.2775 88.9504L46.8324 82.4115L56.7959 79.609ZM41.2271 59.7847L45.2752 61.1341C47.1435 61.7567 48.3891 63.5213 48.3891 65.4933L48.4928 75.4573C48.4928 76.5988 49.3233 77.6371 50.4648 77.9481L51.0874 78.156L43.5106 80.128C42.0571 78.9864 41.2271 77.2218 41.2271 75.3536V59.7847ZM72.3648 59.7847V75.4577C72.3648 77.326 71.5343 79.0906 70.0813 80.2321L62.5045 78.0523L63.1271 77.8449C64.2686 77.5334 65.099 76.4956 65.099 75.354L65.2032 65.3896C65.2032 63.4176 66.4489 61.653 68.3172 61.0304L72.3648 59.7847ZM66.1373 48.9903C69.5624 48.9903 72.3648 51.7927 72.3648 55.2177V56.4634L67.2789 58.228C64.1649 59.2658 62.0892 62.1719 62.0892 65.4937L61.9856 74.1084C61.9856 74.5236 61.674 74.9388 61.2588 75.1462L56.7959 76.3914L52.3326 75.1457C51.9174 75.042 51.6059 74.7305 51.6059 74.3153V74.2116L51.5022 65.4928C51.5022 62.2751 49.4265 59.369 46.3125 58.227L41.2266 56.4625V55.2168C41.2266 51.7918 44.029 48.9893 47.4541 48.9893H66.1373V48.9903Z" fill="#F10606"/>
</g>
<defs>
<clipPath id="clip0_0_1">
<rect width="113.591" height="139.497" fill="white"/>
</clipPath>
<clipPath id="clip1_0_1">
<rect width="66.4281" height="74.7312" fill="white" transform="translate(23.5817 32.3831)"/>
</clipPath>
</defs>
</svg>
