<svg width="114" height="140" viewBox="0 0 114 140" fill="none" xmlns="http://www.w3.org/2000/svg">
<g clip-path="url(#clip0_0_1)">
<path d="M111.01 19.9913L58.1997 0.253345C57.2942 -0.0844685 56.2972 -0.0844685 55.3918 0.253345L2.58171 19.9913C1.82514 20.2719 1.17239 20.777 0.710963 21.439C0.249531 22.1009 0.00146201 22.8881 0 23.695V69.7493C0 87.0621 9.59947 104.584 27.7601 120.422C41.1928 132.137 54.4501 138.8 55.0081 139.079C55.5638 139.354 56.1756 139.498 56.7958 139.497C57.416 139.497 58.0277 139.354 58.5833 139.078C59.1413 138.8 72.3976 132.136 85.8313 120.421C103.992 104.584 113.591 87.0621 113.591 69.7493V23.695C113.59 22.8881 113.342 22.1009 112.88 21.439C112.419 20.777 111.766 20.2719 111.01 19.9913ZM105.62 69.7493C105.62 102.329 65.7973 126.097 56.7957 131.051C47.7941 126.097 7.97133 102.329 7.97133 69.7493V26.4342L56.7957 8.18581L105.62 26.4342V69.7493Z" fill="#F10606"/>
</g>
<g clip-path="url(#clip1_0_1)">
<path fill-rule="evenodd" clip-rule="evenodd" d="M63.6465 88.6389L70.6007 98.1877L70.7044 98.2914L57.8338 107.114V92.8948L63.6465 88.6389ZM48.9076 87.9126L54.7198 92.0644V107.011L40.604 97.0466L48.9076 87.9126ZM70.9117 83.3456L86.6884 87.3937L73.2989 96.5277C73.2989 96.424 73.1952 96.424 73.1952 96.3203L66.1374 86.7706L70.9117 83.3456ZM42.6802 83.3456L46.4167 86.0443L38.0095 95.1783L26.9035 87.3937L42.6802 83.3456ZM38.1131 72.2396V76.8066C38.1131 78.3634 38.6321 79.8164 39.6699 80.8547L24.3084 84.7986C23.8932 83.9682 23.5817 82.9304 23.5817 81.7889V72.2401L38.1131 72.2396ZM75.4788 72.2396L90.0098 72.3433V81.7884C90.0098 82.8262 89.6982 83.864 89.1793 84.7982L73.922 80.9584C74.8562 79.9206 75.3751 78.5712 75.4788 77.1182V72.2396ZM90.0098 54.0757V69.2293L75.4788 69.1261V59.2658L90.0098 54.0757ZM23.5821 54.0757L38.1131 59.1616V69.022L23.5821 69.2293V54.0757ZM90.0098 38.6106V50.8581L75.4788 55.944V55.2172C75.4788 52.7264 74.4409 50.3392 72.8837 48.6783L88.7641 34.7699C89.4909 35.8081 90.0098 37.1575 90.0098 38.6106ZM24.8278 34.7703L40.7082 48.6787C39.151 50.3392 38.1131 52.519 38.1131 54.9062V55.9445L23.5821 50.8585V38.6106C23.5821 37.1575 24.101 35.8081 24.8278 34.7703ZM55.2392 32.3831V45.8763H47.4545C46.0015 45.8763 44.5484 46.1878 43.3028 46.8104L27.4224 32.902C28.1491 32.5905 28.9791 32.3831 29.8096 32.3831H55.2392ZM83.7823 32.3831C84.6128 32.3831 85.4432 32.5905 86.1695 32.902L70.2891 46.8104C69.0435 46.1878 67.6941 45.8763 66.1374 45.8763H58.3527V32.3831H83.7823Z" fill="#F10606"/>
<path fill-rule="evenodd" clip-rule="evenodd" d="M56.7959 79.609L66.8641 82.4115L57.419 88.9504C57.1075 89.1578 56.5886 89.1578 56.2775 88.9504L46.8324 82.4115L56.7959 79.609ZM41.2271 59.7847L45.2752 61.1341C47.1435 61.7567 48.3891 63.5213 48.3891 65.4933L48.4928 75.4573C48.4928 76.5988 49.3233 77.6371 50.4648 77.9481L51.0874 78.156L43.5106 80.128C42.0571 78.9864 41.2271 77.2218 41.2271 75.3536V59.7847ZM72.3648 59.7847V75.4577C72.3648 77.326 71.5343 79.0906 70.0813 80.2321L62.5045 78.0523L63.1271 77.8449C64.2686 77.5334 65.099 76.4956 65.099 75.354L65.2032 65.3896C65.2032 63.4176 66.4489 61.653 68.3172 61.0304L72.3648 59.7847ZM66.1373 48.9903C69.5624 48.9903 72.3648 51.7927 72.3648 55.2177V56.4634L67.2789 58.228C64.1649 59.2658 62.0892 62.1719 62.0892 65.4937L61.9856 74.1084C61.9856 74.5236 61.674 74.9388 61.2588 75.1462L56.7959 76.3914L52.3326 75.1457C51.9174 75.042 51.6059 74.7305 51.6059 74.3153V74.2116L51.5022 65.4928C51.5022 62.2751 49.4265 59.369 46.3125 58.227L41.2266 56.4625V55.2168C41.2266 51.7918 44.029 48.9893 47.4541 48.9893H66.1373V48.9903Z" fill="#F10606"/>
</g>
<defs>
<clipPath id="clip0_0_1">
<rect width="113.591" height="139.497" fill="white"/>
</clipPath>
<clipPath id="clip1_0_1">
<rect width="66.4281" height="74.7312" fill="white" transform="translate(23.5817 32.3831)"/>
</clipPath>
</defs>
</svg>
